<?xml version="1.0" encoding="utf-8"?>
<!-- Generator: Adobe Illustrator 19.1.0, SVG Export Plug-In . SVG Version: 6.00 Build 0)  -->
<svg version="1.1" id="Layer_1" xmlns="http://www.w3.org/2000/svg" xmlns:xlink="http://www.w3.org/1999/xlink" x="0px" y="0px"
	 viewBox="0 0 137 129" style="enable-background:new 0 0 137 129;" xml:space="preserve">
<style type="text/css">
	.st0{fill:#B9EA20;}
	.st1{fill:#01A500;}
	.st2{fill:#FF0032;}
</style>
<path class="st0" d="M62.7,60.1L62.7,60.1c5.2-2.4,11-7,20.1-16.6c15.4-16.7,33.7-27.8,39-31.1c-5.2,4.8-9.4,9.8-12.6,14.7
	c-4,6.3-5.7,9.3-11.4,19.6c-5.5,9.9-8.7,22.5-20.5,32.4c-5.8,4.8-12.9,7.8-20.7,7.8c-19.1,0-34.7-17.5-34.7-39
	c0-7.1,1.8-13.9,4.7-19.6l0.1,0.7c-0.2,1.3-0.2,2.6-0.2,4c0,16.2,11.7,29.4,26.1,29.4C56.1,62.4,59.5,61.5,62.7,60.1"/>
<path class="st1" d="M60.1,47.2L60.1,47.2c3.6-2.7,7.5-7.3,13-16.3C82.5,15.2,95,3.4,98.6,0c-3.3,4.7-5.8,9.3-7.4,13.6
	c-2.1,5.6-3,8.2-5.8,17.2c-2.8,8.7-3.2,19.1-10.8,28.9l-0.1-0.1l0.1,0.1c-3.8,4.8-8.9,8.2-15,9.5c-15,3.1-30.1-7.9-33.6-24.8
	c-1.2-5.6-0.9-11.2,0.5-16.2l0.2,0.6c0.1,1,0.2,2.1,0.5,3.2c2.6,12.7,14,21.1,25.3,18.7C55.3,50.1,57.9,48.9,60.1,47.2"/>
<path class="st2" d="M48.1,8.4c9.5,0,17.1,7.8,17.1,17.3c0,9.6-7.7,17.4-17.1,17.4c-9.4,0-17.1-7.8-17.1-17.4
	C31,16.2,38.7,8.4,48.1,8.4"/>
<g>
	<path d="M0,97.6h6.7v17.3c0,0,0,7.3,5.6,7.3c6.7,0,6.6-7.3,6.6-7.3V97.6h6.9v30.6h-6.6v-2c0,0-2.4,2.6-7.1,2.6
		c-7.5-0.1-10.5-4.9-11.5-8.5c-0.7-3.5-0.6-5.5-0.6-5.5L0,97.6L0,97.6z"/>
	<path d="M54.2,128.3h-6.9v-17.3c0,0,0-7.3-5.7-7.3c-6.9,0-6.7,7.3-6.7,7.3v17.3h-7V97.8h6.7v2c0,0,2.5-2.6,7.3-2.6
		c7.7,0,10.7,4.9,11.7,8.5c0.8,3.4,0.7,5.5,0.7,5.5L54.2,128.3L54.2,128.3z"/>
	<path d="M69.7,103.3c6.9,0,8.3,6.4,8.3,6.4H61.4C61.4,109.7,62.8,103.3,69.7,103.3 M78,115.9h7.3c0.2-1,0.3-2,0.3-3.1
		c0-8.9-7.1-16.1-15.9-16.1s-15.9,7.2-15.9,16.1c0,8.9,7.1,16.1,15.9,16.1c7.1,0,13.1-4.7,15.1-11.2h-7.5c-1,1.9-3.1,4.6-7.6,4.6
		c-6.9,0-8.3-6.4-8.3-6.4h13.7L78,115.9L78,115.9z"/>
	<path d="M100.1,106.6c0,0,0.3-3.4-3.6-3.4c-3.3,0-3.4,2.5-3.4,2.5s-0.1,0.9,1.3,1.9c1.4,0.9,3.2,1.4,3.2,1.4s2.6,0.8,5.1,1.8
		c1.3,0.6,2.5,1.2,3.2,1.9c2.1,2,3.1,5.6,2.3,8.9c-0.3,1.4-1.3,3-2.9,4.4c-2.1,1.9-5.2,3.1-9.2,3.1c-11.4,0-12.3-9.6-12.3-9.6
		l-0.1-2.1h7.8c0,0-0.7,4.9,4.9,5.3c0,0,4.4-0.1,4.3-3.2c0,0,0.3-1.2-1.2-2.4c-1.6-1.4-6-1.9-9.4-3.6c-1.1-0.5-2.1-1.4-2.8-2.2
		c-1.1-1.3-2-3-2-5.3c0,0,0-2.3,1.4-4.5c1.5-2.5,4.6-4.8,9.9-4.8c0,0,11.4-0.8,11.4,9.9L100.1,106.6L100.1,106.6L100.1,106.6z"/>
	<path d="M122.1,122.3L122.1,122.3c-0.1,0-0.3,0-0.4,0c0,0,0,0-0.1,0l0,0c0,0,0,0,0,0c-6.2,0-7.9-5.1-8.2-6.2
		c-0.4-1.1-0.6-2.2-0.6-3.4c0-1.4,0.3-2.8,0.8-3.9c0.5-1.4,2-4.2,5.4-5.2c0.8-0.3,1.8-0.5,2.7-0.5c1.1,0,2.3,0.3,3.3,0.7
		c1.8,0.7,2.9,1.9,3.7,3c0.5,0.6,0.8,1.3,1.1,2.1h7.3c-1.8-7-8-12.2-15.4-12.2c-8.7,0-15.9,7.2-15.9,16.1c0,8.9,7.1,16.1,15.9,16.1
		c8.7,0,13.2-5.9,15.3-12.3h-7.5C128.4,118.4,126.2,122.1,122.1,122.3"/>
</g>
</svg>
